{"title":"Ravenous 1999 BRRip XviD titler","uid":10213563,"size":976875841,"categoryP":"video","categoryS":"movies","magnet":"?xt=urn:btih:8b70d6284ac91479c547e5362d1a49b99d0cf616&amp;dn=Ravenous+1999+BRRip+XviD+titler&amp;tr=udp%3A%2F%2Ftracker.openbittorrent.com%3A80&amp;tr=udp%3A%2F%2Fopen.demonii.com%3A1337&amp;tr=udp%3A%2F%2Ftracker.coppersurfer.tk%3A6969&amp;tr=udp%3A%2F%2Fexodus.desync.com%3A6969","seeders":0,"leechers":0,"uploader":"movieZ.freak","files":4,"time":1400939857,"description":"SOURCE: Ravenous 1999 720p BluRay x264 - HD4U\n\n\n &lt;a href=&quot;\nhttp://www.imdb.com/title/tt0129332/&quot; rel=&quot;nofollow&quot; target=&quot;_NEW&quot;&gt;\nhttp://www.imdb.com/title/tt0129332/&lt;/a&gt;\n\n\n &lt;a href=&quot;\nhttp://www.rottentomatoes.com/m/ravenous/&quot; rel=&quot;nofollow&quot; target=&quot;_NEW&quot;&gt;\nhttp://www.rottentomatoes.com/m/ravenous/&lt;/a&gt;\n\n\n &lt;a href=&quot;\nhttp://en.wikipedia.org/wiki/Ravenous&quot; rel=&quot;nofollow&quot; target=&quot;_NEW&quot;&gt;\nhttp://en.wikipedia.org/wiki/Ravenous&lt;/a&gt;\n\n\n\n\n- SAMPLE: Yes\n\n\n- SUBTITLE: English\n\n\n- LANGUAGE / AUDIO: English\n\n\n\n\nSCREENSHOTS:\n-------------------    &lt;a href=&quot;\nhttp://someimage.com/1UAZ&quot; rel=&quot;nofollow&quot; target=&quot;_NEW&quot;&gt;\nhttp://someimage.com/1UAZ&lt;/a&gt;\n\n\n\n\nDIRECTOR: Antonia Bird\n\n\n\n\nCAST: Guy Pearce, Robert Carlyle, David Arquette, Jeremy Davies, Jeffrey Jones, John Spencer, Stephen Spinella, Neal McDonough, Sheila Tousey,...\n\n\n\nPLOT:\n-----------\nIn 1847, many Americans made the journey across our continent in search of gold. Many failed to complete the journey or see their dreams come to light. Capt. John Boyd (Guy Pearce) found his way here thanks to an act of cowardice during the Mexican-American War; he has been banished to a desolate military outpost in California's Sierra Nevada mountains. Upon his arrival, he is greeted by a rag-tag group of soldiers manning the fort: Hart (Jeffrey Jones), the despondent commanding officer; Toffler (Jeremy Davies), the company chaplain; Knox (Stephen Spinella), the drunken doctor; Reich (Neal McDonough), the only real soldier of the group; and Cleaves (David Arquette), the heavily medicated camp cook. One day, Colqhoun (Robert Carlyle) stumbles into their camp. The half-starved Scotsman had been traveling with a group of settlers until they were snowbound. Unable to move forward, they took refuge in a cave, where once they ran out of food, they were forced to resort to cannibalism. Colqhoun barely escaped the madness... or did he? Boyd and the soldiers hear of the old Indian legend of the Wendigo, which states a man who tastes the flesh of another steals that man's strength, spirit and essence. His hunger, however, will become an unstoppable craving. Like a vampire, the more he eats, the more he wants, and the stronger he will become, with death the only escape from the madness. The soldiers are soon drawn into the frenzy and Boyd is soon left with the choice of eating or being eaten.\n\n\n************************************\n\n- Duration: 1h 40mn\n\n- Bit rate:  1136 Kbps\n\n- Res: 720 x 306\n\n- AR: 2.35:1\n\n- FPS: 23.976 fps\n\n- Audio: AC3, 2 channels, 128 Kbps\n\n************************************\n\n\nGeneral\n------------\nFormat : AVI\nFormat/Info : Audio Video Interleave\nFile size : 919 MiB\nDuration : 1h 40mn\nOverall bit rate : 1273 Kbps\nWriting library : VirtualDub build 35491\n\n\nVideo\n-------------\nFormat : MPEG-4 Visual\nFormat profile : Advanced Simple@L5\nFormat settings, BVOP : 2\nFormat settings, QPel : No\nFormat settings, GMC : No warppoints\nFormat settings, Matrix : Default (H.263)\nCodec ID : XVID\nCodec ID/Hint : XviD\nDuration : 1h 40mn\nBit rate : 1136 Kbps\nWidth : 720 pixels\nHeight : 306 pixels\nDisplay aspect ratio : 2.35:1\nFrame rate : 23.976 fps\nColor space : YUV\nChroma subsampling : 4:2:0\nBit depth : 8 bits\nScan type : Progressive\nCompression mode : Lossy\nBits/(Pixel*Frame) : 0.215\nStream size : 820 MiB (89%)\nWriting library : XviD 65\n\n\nAudio\n-------------\nFormat : AC-3\nFormat/Info : Audio Coding 3\nMode extension : CM (complete main)\nFormat settings, Endianness : Big\nCodec ID : 2000\nDuration : 1h 40mn\nBit rate mode : Constant\nBit rate : 128 Kbps\nChannel(s) : 2 channels\nChannel positions : Front: L R\nSampling rate : 48.0 KHz\nBit depth : 16 bits\nCompression mode : Lossy\nStream size : 92.4 MiB (10%)\nAlignment : Aligned on interleaves\nInterleave, duration : 42 ms (1.00 video frame)\nInterleave, preload duration : 512 ms","torrent":{"xt":"urn:btih:8b70d6284ac91479c547e5362d1a49b99d0cf616","amp;dn":"Ravenous+1999+BRRip+XviD+titler","amp;tr":["udp%3A%2F%2Ftracker.openbittorrent.com%3A80","udp%3A%2F%2Fopen.demonii.com%3A1337","udp%3A%2F%2Ftracker.coppersurfer.tk%3A6969","udp%3A%2F%2Fexodus.desync.com%3A6969"],"infoHash":"8b70d6284ac91479c547e5362d1a49b99d0cf616","infoHashBuffer":{"type":"Buffer","data":[139,112,214,40,74,201,20,121,197,71,229,54,45,26,73,185,157,12,246,22]},"announce":[],"urlList":[]}}